<?xml version="1.0" encoding="utf-8"?>
<!-- Generator: Adobe Illustrator 22.0.1, SVG Export Plug-In . SVG Version: 6.00 Build 0)  -->
<svg version="1.1" id="Layer_1" xmlns="http://www.w3.org/2000/svg" xmlns:xlink="http://www.w3.org/1999/xlink" x="0px" y="0px"
	 viewBox="0 0 30 30" style="enable-background:new 0 0 30 30;" xml:space="preserve">
<style type="text/css">
	.st0{fill:#683A96;}
</style>
<g transform="translate(-3904 6923)">
	<path class="st0" d="M3927.9-6912.9L3927.9-6912.9L3927.9-6912.9l-5.7-2.8h-0.1c-0.1,0-0.1,0-0.2,0c-0.2,0-0.4,0.1-0.6,0.3
		l-3.3,5.3l4.1,6.6L3927.9-6912.9C3927.9-6912.8,3927.9-6912.9,3927.9-6912.9"/>
	<path class="st0" d="M3916.3-6911.4v6l5.4,2.7L3916.3-6911.4"/>
	<path class="st0" d="M3922.5-6902.3l4.4,2.2c0.6,0.3,1,0.1,1-0.4v-10.6L3922.5-6902.3"/>
	<path class="st0" d="M3915.3-6912.9l-5.6-2.8c-0.1,0-0.2-0.1-0.3-0.1c-0.2,0-0.4,0.2-0.4,0.5v11.9c0,0.4,0.2,0.7,0.5,0.8l4.9,2.4
		c0.1,0.1,0.2,0.1,0.4,0.1c0.3,0,0.5-0.2,0.5-0.6L3915.3-6912.9C3915.4-6912.9,3915.4-6912.9,3915.3-6912.9"/>
</g>
</svg>
