<?xml version="1.0" encoding="utf-8"?>
<!-- Generator: Adobe Illustrator 22.0.1, SVG Export Plug-In . SVG Version: 6.00 Build 0)  -->
<svg version="1.1" id="Layer_1" xmlns="http://www.w3.org/2000/svg" xmlns:xlink="http://www.w3.org/1999/xlink" x="0px" y="0px"
	 viewBox="0 0 30 30" style="enable-background:new 0 0 30 30;" xml:space="preserve">
<style type="text/css">
	.st0{fill:#683A96;}
</style>
<path class="st0" d="M23.5,21.3h-3.9v-5.6c0-1.5-0.6-2.5-1.9-2.5c-0.8,0-1.6,0.5-1.8,1.3c-0.1,0.3-0.1,0.6-0.1,0.9v5.8H12
	c0,0,0-9.9,0-10.8h3.8v1.7c0.2-0.7,1.5-1.8,3.4-1.8c2.4,0,4.3,1.6,4.3,4.9V21.3L23.5,21.3z M8.1,9.1L8.1,9.1C7,9.2,6.1,8.4,6,7.4
	V7.3C5.9,6.1,6.7,5.1,7.9,5C9,4.8,10,5.7,10.1,6.8C10.3,8,9.4,9,8.3,9.1C8.2,9.1,8.1,9.1,8.1,9.1L8.1,9.1z M6.4,10.5h3.4v10.8H6.4
	V10.5L6.4,10.5z"/>
</svg>
